<?xml version="1.0" standalone="no"?>
<!DOCTYPE svg PUBLIC "-//W3C//DTD SVG 20010904//EN"
 "http://www.w3.org/TR/2001/REC-SVG-20010904/DTD/svg10.dtd">
<svg version="1.0" xmlns="http://www.w3.org/2000/svg"
 width="2000.000000pt" height="2000.000000pt" viewBox="0 0 2000.000000 2000.000000"
 preserveAspectRatio="xMidYMid meet">
<metadata>
Created by potrace 1.16, written by Peter Selinger 2001-2019
</metadata>
<g transform="translate(0.000000,2000.000000) scale(0.100000,-0.100000)"
fill="#000000" stroke="none">
<path d="M7707 16930 c-1265 -76 -2316 -526 -3250 -1394 -888 -825 -1439
-1845 -1616 -2991 -46 -299 -55 -433 -56 -835 0 -212 3 -403 6 -425 l7 -40
-141 -70 c-890 -442 -1605 -1175 -2058 -2110 -234 -484 -362 -937 -425 -1505
-22 -191 -25 -721 -6 -910 62 -612 198 -1101 445 -1595 363 -727 961 -1391
1672 -1858 563 -369 1160 -583 1895 -680 l165 -21 5870 -4 c4210 -2 5912 0
6020 8 683 50 1285 256 1845 630 210 141 375 276 588 485 676 659 1061 1444
1164 2370 17 160 17 720 0 880 -79 711 -328 1342 -757 1913 -454 605 -1026
1047 -1701 1315 -121 49 -384 133 -521 167 l-42 10 49 79 c470 758 491 1817
50 2600 -123 220 -269 410 -465 604 -415 413 -906 657 -1485 739 -147 20 -604
17 -750 -5 -474 -74 -865 -243 -1220 -528 -47 -38 -88 -69 -91 -69 -3 0 -19
30 -34 68 -134 320 -366 731 -574 1017 -304 418 -729 842 -1146 1145 -814 590
-1681 916 -2660 1000 -172 15 -604 20 -778 10z m2751 -3969 c67 -30 151 -120
175 -187 16 -46 17 -160 17 -1886 l0 -1838 1198 -2 1197 -3 46 -21 c67 -31
124 -87 156 -152 23 -48 28 -70 28 -137 0 -160 167 20 -1902 -2049 -1051
-1051 -1854 -1846 -1874 -1857 -79 -40 -204 -42 -295 -5 -29 13 -509 487
-1891 1869 -1573 1572 -1856 1859 -1875 1902 -32 73 -32 192 2 260 35 73 114
148 183 173 l58 22 1179 0 1180 0 2 1853 3 1852 27 50 c26 51 94 121 139 146
71 38 72 38 1149 36 l1045 -2 53 -24z"/>
</g>
</svg>
